<?xml version="1.0" standalone="no"?>
<!DOCTYPE svg PUBLIC "-//W3C//DTD SVG 20010904//EN"
 "http://www.w3.org/TR/2001/REC-SVG-20010904/DTD/svg10.dtd">
<svg version="1.0" xmlns="http://www.w3.org/2000/svg"
 width="512.000000pt" height="512.000000pt" viewBox="0 0 512.000000 512.000000"
 preserveAspectRatio="xMidYMid meet">

<g transform="translate(0.000000,512.000000) scale(0.100000,-0.100000)"
fill="#000000" stroke="none">
<path d="M2506 4749 c-14 -17 -38 -51 -52 -75 -14 -24 -29 -44 -32 -44 -4 0
-103 -18 -222 -41 -215 -40 -388 -82 -510 -122 l-65 -22 1 -105 c3 -182 50
-372 98 -390 24 -9 89 0 223 31 52 12 96 20 98 17 3 -3 -27 -63 -66 -134 -108
-195 -120 -217 -209 -384 -46 -85 -95 -177 -110 -205 -51 -93 -299 -592 -361
-726 -199 -434 -346 -812 -399 -1034 -19 -78 -21 -111 -18 -250 4 -150 6 -165
36 -243 61 -162 150 -291 254 -368 43 -31 69 -44 87 -42 24 3 26 7 29 58 2 30
-4 98 -14 150 -23 129 -22 282 4 390 39 161 160 480 299 790 41 91 79 177 85
192 5 16 14 28 18 28 4 0 20 -29 35 -65 44 -102 43 -102 177 -66 232 61 310
73 493 72 486 0 923 -150 1025 -351 71 -139 14 -280 -199 -490 -171 -170 -358
-297 -624 -425 -256 -123 -503 -190 -677 -183 -91 3 -99 5 -182 51 -48 26 -94
47 -102 47 -20 0 -24 -27 -14 -109 23 -197 111 -330 268 -405 63 -30 70 -31
195 -30 99 0 151 5 220 22 274 68 647 224 855 357 106 69 212 158 257 216 53
69 146 231 184 319 47 110 62 198 62 355 0 334 -71 574 -219 733 -85 92 -176
157 -276 198 -43 17 -79 35 -79 39 0 4 50 29 111 55 249 109 391 200 541 350
157 156 245 311 291 513 17 71 21 127 22 247 1 259 -42 419 -159 596 -135 203
-341 335 -616 396 -92 20 -131 23 -339 23 l-236 0 -44 36 c-85 69 -107 73
-144 28z m808 -194 c55 -13 140 -45 190 -69 88 -43 213 -133 201 -144 -3 -3
-23 9 -46 28 -62 49 -213 125 -311 155 -48 15 -144 35 -215 46 l-128 18 105
-4 c65 -3 143 -14 204 -30z m-199 -45 c18 -5 -30 -8 -120 -8 -92 0 -142 3
-130 8 24 11 209 11 250 0z m1 -340 c300 -24 521 -87 663 -190 61 -44 95 -122
88 -199 -8 -85 -40 -157 -113 -254 -236 -314 -806 -599 -1410 -707 -146 -25
-384 -53 -392 -45 -10 9 328 677 605 1195 l88 164 65 13 c154 32 235 36 406
23z m-1962 -2196 c-142 -402 -164 -485 -171 -664 -5 -127 4 -220 33 -317 3
-10 -6 5 -20 33 -93 197 -70 474 65 801 51 124 141 314 146 309 2 -2 -22 -75
-53 -162z m1991 -840 c-27 -25 -66 -58 -85 -72 -19 -14 -55 -43 -80 -63 -63
-52 -195 -131 -325 -196 -121 -61 -147 -71 -285 -114 -128 -39 -148 -35 -30 5
126 44 277 108 348 147 179 101 305 184 422 278 89 71 105 78 35 15z m-778
-520 c-3 -3 -12 -4 -19 -1 -8 3 -5 6 6 6 11 1 17 -2 13 -5z m-40 -10 c-3 -3
-12 -4 -19 -1 -8 3 -5 6 6 6 11 1 17 -2 13 -5z m-54 -11 c-7 -2 -19 -2 -25 0
-7 3 -2 5 12 5 14 0 19 -2 13 -5z m-367 -14 c59 -8 108 -8 196 2 65 6 121 10
123 7 12 -12 -136 -38 -210 -38 -71 0 -177 19 -193 34 -7 8 -6 8 84 -5z"/>
</g>
</svg>
